<svg width="600" height="150" viewBox="0 0 600 150" fill="none" xmlns="http://www.w3.org/2000/svg">
<rect width="600" height="150" fill="none"/>
<rect width="600" height="150" rx="8" fill="#9EC2E2"/>
<rect y="51" width="600" height="47" fill="white"/>
<path d="M307.08 75.396C306.436 74.64 306.044 73.688 305.96 72.68L305.792 70.916C305.596 68.312 303.664 66.156 301.2 65.568V65.4C301.2 64.616 300.584 64 299.8 64C299.016 64 298.4 64.616 298.4 65.4V65.568C295.936 66.156 294.004 68.312 293.808 70.916L293.64 72.68C293.556 73.688 293.192 74.64 292.52 75.424L291.456 76.684C290.532 77.832 290 79.26 290 80.716V81.5C290 81.892 290.308 82.2 290.7 82.2H308.9C309.292 82.2 309.6 81.892 309.6 81.5V80.716C309.6 79.26 309.068 77.832 308.144 76.684L307.08 75.396ZM308.2 80.8H291.4V80.716C291.4 79.596 291.792 78.476 292.548 77.58L293.612 76.32C294.452 75.312 294.928 74.08 295.04 72.792L295.18 71.028C295.376 68.676 297.42 66.8 299.8 66.8C302.18 66.8 304.224 68.676 304.42 71.028L304.56 72.792C304.672 74.08 305.176 75.312 305.988 76.32L307.052 77.58C307.808 78.476 308.2 79.596 308.2 80.716V80.8ZM303.02 83.74C302.712 83.516 302.264 83.572 302.012 83.88C300.948 85.308 298.652 85.308 297.56 83.88C297.336 83.572 296.888 83.516 296.58 83.74C296.272 83.964 296.216 84.412 296.468 84.72C297.252 85.784 298.484 86.4 299.8 86.4C301.116 86.4 302.348 85.784 303.132 84.72C303.384 84.412 303.328 83.964 303.02 83.74Z" fill="black"/>
<circle cx="306" cy="72" r="3.75" fill="#DD2339" stroke="white" stroke-width="1.5"/>
</svg>
